<svg width="189" height="58" viewBox="0 0 189 58" fill="none" xmlns="http://www.w3.org/2000/svg">
<g id="logo 1" clip-path="url(#clip0_371_6794)">
<path id="Vector" d="M27.2363 29.3353C32.6783 34.9682 38.0225 40.7014 43.5623 46.2389L59.8883 29.3353L53.494 18.2603H33.6307C31.4992 21.9504 29.3678 25.6428 27.2363 29.3353ZM50.1882 23.9887L52.7684 28.4593L43.5623 37.9923L34.3563 28.4593L36.9365 23.9887H50.1882Z" fill="url(#paint0_linear_371_6794)"/>
<path id="Vector_2" d="M34.3529 28.461L43.5599 37.9945L52.7666 28.461L52.7771 28.4779C54.5849 31.609 53.993 35.4737 51.5789 37.9365L51.5713 37.9451L43.5599 46.2408C38.0203 40.7012 32.6756 34.9704 27.2334 29.335L32.9604 19.4155C31.3688 22.2413 31.781 25.8939 34.1853 28.2982C34.2364 28.3493 34.2925 28.4032 34.3533 28.46L34.3529 28.461ZM33.0389 19.28L33.0387 19.2802L33.0485 19.2633L33.0389 19.28Z" fill="url(#paint1_linear_371_6794)"/>
<path id="Vector_3" d="M21.8916 12.046C22.2943 11.5477 22.7129 11.0624 23.1508 10.5942C24.8576 8.76541 26.8163 7.18543 28.9488 5.88508C29.2748 5.68158 29.5384 5.52199 29.547 5.51722C31.6897 4.27343 34.0001 3.32324 36.3961 2.6837C39.8012 1.76142 43.3847 1.46839 46.926 1.89342C46.9973 1.90148 47.0664 1.91018 47.136 1.92117C48.0631 2.03352 48.9864 2.19631 49.8978 2.40677C58.4124 4.37796 65.8443 10.5163 69.3207 18.6486C72.9085 27.0401 72.1056 37.1666 67.0539 44.9375C60.6658 54.7665 47.8263 59.9218 36.0566 56.5643C35.5644 56.4244 35.1922 56.2893 34.6143 56.1155C34.6143 56.1155 33.9617 55.9024 33.4428 55.7548C28.8498 54.4478 23.9272 54.3731 19.3222 55.4835L14.5037 56.7746L12.0271 47.5318C15.4907 45.6474 17.6938 41.4938 16.8156 37.3678C16.767 37.1955 11.9458 19.1934 11.9458 19.1934C11.0232 14.9755 6.90865 11.7561 2.47403 11.8794L-0.00133567 2.64116C2.34275 2.01059 4.68915 1.37941 7.03571 0.758063C12.1862 -0.622013 17.9092 0.46631 22.3678 3.45756C20.8383 4.70262 19.4174 6.07669 18.1275 7.56146C16.625 6.69396 14.9513 6.11938 13.191 5.9313C11.6012 5.76177 9.97187 5.89687 8.43303 6.31415L6.98285 6.70272C12.0882 8.17891 16.3216 12.5427 17.5268 17.8982L17.5142 17.8422C19.8891 26.7144 22.4343 36.2502 22.4343 36.2502C23.4202 41.027 21.9525 46.1918 18.5357 49.7538L18.497 49.7938C18.5667 49.7776 18.6342 49.762 18.7046 49.7481C24.5581 48.4737 30.6355 48.7826 36.2653 50.6297C36.2653 50.6297 37.3502 50.9988 38.3008 51.2358C45.9665 53.1652 54.5593 50.6329 59.9586 44.7679C65.9168 38.2961 67.5786 28.1841 63.6517 20.0119C60.3224 13.0832 53.2084 8.18658 45.5034 7.50331C45.4275 7.49649 45.3498 7.4926 45.2739 7.48577C37.0616 6.8643 28.6966 11.169 24.468 18.3413C24.2575 18.6986 24.0564 19.0615 23.8651 19.4295C23.2929 17.2847 22.6224 14.7734 21.8916 12.046Z" fill="url(#paint2_linear_371_6794)"/>
<path id="Vector_4" d="M45.1779 7.47683C36.9968 6.89492 28.6827 11.195 24.468 18.3398C24.2583 18.6954 24.0587 19.0569 23.8696 19.4239C25.4688 11.5664 31.3531 4.88185 39.6187 2.6671C43.0646 1.74364 46.5408 1.70019 49.8079 2.39858C49.8451 2.39763 49.8754 2.40002 49.8988 2.40527C58.4132 4.37728 65.8468 10.5136 69.3225 18.6453C72.9101 27.0384 72.107 37.1648 67.0555 44.9347C63.0713 51.0632 56.5798 55.3752 49.4036 56.9393L49.4026 56.9398L49.2976 56.9625L49.4036 56.9393C61.9739 52.8519 69.2891 39.5684 65.8284 26.6525C65.6815 26.1042 65.5163 25.5611 65.3329 25.0239C64.9818 23.2896 64.4175 21.6054 63.6528 20.0097C60.3234 13.0807 53.2096 8.18476 45.5047 7.50022C45.4278 7.49524 45.3509 7.48983 45.2741 7.48399L45.1779 7.47683Z" fill="url(#paint3_linear_371_6794)"/>
<path id="Vector_5" d="M142.772 46.2625H137.044V18.2934H142.772V46.2625ZM175.126 18.2624C180.179 18.3101 185.063 21.2816 187.413 25.7331C189.428 29.5475 189.535 34.3212 187.678 38.2329C185.062 43.7445 178.615 47.177 172.39 45.9833C166.684 44.8875 161.946 39.8824 161.175 34.116C160.585 29.7026 162.246 25.0506 165.512 22.0099C168.049 19.6493 171.474 18.2958 174.947 18.2624H175.126ZM88.7632 20.9714C91.6602 18.8733 95.3457 17.8806 98.9334 18.4103C103.335 19.0594 107.388 21.8596 109.443 25.8262C111.471 29.7408 111.502 34.6338 109.505 38.5579C106.01 45.4225 96.3938 48.6136 89.3956 43.9091C89.1808 43.7635 88.9708 43.6132 88.7632 43.4581V46.2363H83.0345V8.9422H88.7632V20.9714ZM129.289 18.2624C130.463 18.2767 131.633 18.4461 132.767 18.754L132.819 18.7683L131.34 24.2942C130.905 24.1701 130.74 24.1414 130.433 24.0913C125.959 23.363 121.09 27.1029 120.966 31.8508C120.959 32.1229 120.964 32.4021 120.95 32.6192V46.2315H115.221V18.2624H120.95V20.9618C123.298 19.2651 126.194 18.2987 129.11 18.2624H129.289ZM154.208 36.8631C154.208 36.8631 154.205 37.894 154.661 38.6749C155.461 40.0399 157.201 40.7558 158.74 40.3549L160.215 45.8569C157.7 46.5298 154.938 46.1838 152.75 44.7257C150.167 43.0047 148.52 39.9635 148.48 36.8631V8.93695H154.208V36.8631ZM174.983 23.9911C171.322 24.0269 167.856 26.7354 167.003 30.3302C166.348 33.0893 167.233 36.1639 169.271 38.1546C171.543 40.374 175.143 41.1261 178.153 39.8967C180.781 38.8228 182.769 36.3167 183.199 33.5098C183.881 29.0511 180.375 24.3414 175.625 24.0102C175.41 23.9959 175.198 23.9911 174.983 23.9911ZM96.9666 23.9959C92.5198 24.0507 88.3503 28.0937 88.8228 32.8388C89.2285 36.8965 92.8372 40.5081 97.0143 40.5081C101.232 40.5105 105.244 36.7653 105.266 32.4331C105.287 28.1367 101.537 24.034 97.0739 23.9959H96.9666ZM142.77 14.6919H137.042V8.96797H142.77V14.6919Z" fill="#00065B"/>
</g>
<defs>
<linearGradient id="paint0_linear_371_6794" x1="33.2491" y1="28.8981" x2="44.9978" y2="23.4188" gradientUnits="userSpaceOnUse">
<stop stop-color="#009E67"/>
<stop offset="1" stop-color="#02EB81"/>
</linearGradient>
<linearGradient id="paint1_linear_371_6794" x1="54.26" y1="31.8303" x2="41.6329" y2="38.5259" gradientUnits="userSpaceOnUse">
<stop stop-color="#009E67"/>
<stop offset="1" stop-color="#01D684"/>
</linearGradient>
<linearGradient id="paint2_linear_371_6794" x1="38.8437" y1="9.66849" x2="32.2273" y2="38.2635" gradientUnits="userSpaceOnUse">
<stop stop-color="#3F99FE"/>
<stop offset="1" stop-color="#264AFB"/>
</linearGradient>
<linearGradient id="paint3_linear_371_6794" x1="55.8141" y1="55.727" x2="17.8865" y2="22.1679" gradientUnits="userSpaceOnUse">
<stop stop-color="#3477FD"/>
<stop offset="0.07" stop-color="#3B8BFE"/>
<stop offset="0.14" stop-color="#419DFF"/>
<stop offset="0.37" stop-color="#43A4FF"/>
<stop offset="0.73" stop-color="#44A8FF"/>
<stop offset="1" stop-color="#264AFB"/>
</linearGradient>
<clipPath id="clip0_371_6794">
<rect width="189" height="57.75" fill="white"/>
</clipPath>
</defs>
</svg>
